<svg width="25" height="25" viewBox="0 0 25 25" fill="none" xmlns="http://www.w3.org/2000/svg">
<path d="M17.9373 18.1436C16.8273 18.1436 15.9373 19.0336 15.9373 20.1436C15.9373 20.674 16.148 21.1827 16.523 21.5578C16.8981 21.9328 17.4068 22.1436 17.9373 22.1436C18.4677 22.1436 18.9764 21.9328 19.3515 21.5578C19.7265 21.1827 19.9373 20.674 19.9373 20.1436C19.9373 19.0336 19.0373 18.1436 17.9373 18.1436ZM1.93726 2.14355V4.14355H3.93726L7.53726 11.7336L6.17726 14.1836C6.02726 14.4636 5.93726 14.7936 5.93726 15.1436C5.93726 15.674 6.14797 16.1827 6.52304 16.5578C6.89811 16.9328 7.40682 17.1436 7.93726 17.1436H19.9373V15.1436H8.35726C8.29095 15.1436 8.22736 15.1172 8.18048 15.0703C8.13359 15.0234 8.10726 14.9599 8.10726 14.8936C8.10726 14.8436 8.11726 14.8036 8.13726 14.7736L9.03726 13.1436H16.4873C17.2373 13.1436 17.8973 12.7236 18.2373 12.1136L21.8173 5.64355C21.8873 5.48355 21.9373 5.31355 21.9373 5.14355C21.9373 4.87834 21.8319 4.62398 21.6444 4.43645C21.4568 4.24891 21.2025 4.14355 20.9373 4.14355H6.14726L5.20726 2.14355M7.93726 18.1436C6.82726 18.1436 5.93726 19.0336 5.93726 20.1436C5.93726 20.674 6.14797 21.1827 6.52304 21.5578C6.89811 21.9328 7.40682 22.1436 7.93726 22.1436C8.46769 22.1436 8.9764 21.9328 9.35147 21.5578C9.72654 21.1827 9.93726 20.674 9.93726 20.1436C9.93726 19.0336 9.03726 18.1436 7.93726 18.1436Z" fill="white"/>
</svg>
